<?xml version="1.0" encoding="UTF-8" standalone="no"?>
<!-- Created with Inkscape (http://www.inkscape.org/) -->

<svg
   xmlns:dc="http://purl.org/dc/elements/1.1/"
   xmlns:cc="http://creativecommons.org/ns#"
   xmlns:rdf="http://www.w3.org/1999/02/22-rdf-syntax-ns#"
   xmlns:svg="http://www.w3.org/2000/svg"
   xmlns="http://www.w3.org/2000/svg"
   xmlns:sodipodi="http://sodipodi.sourceforge.net/DTD/sodipodi-0.dtd"
   xmlns:inkscape="http://www.inkscape.org/namespaces/inkscape"
   width="190.0533mm"
   height="70.796646mm"
   viewBox="0 0 190.05331 70.796646"
   version="1.1"
   id="svg8"
   inkscape:version="0.92.3 (2405546, 2018-03-11)"
   sodipodi:docname="logo-name-dark.svg">
  <defs
     id="defs2" />
  <sodipodi:namedview
     id="base"
     pagecolor="#ffffff"
     bordercolor="#666666"
     borderopacity="1.0"
     inkscape:pageopacity="0"
     inkscape:pageshadow="2"
     inkscape:zoom="0.99674932"
     inkscape:cx="374.1407"
     inkscape:cy="86.989733"
     inkscape:document-units="mm"
     inkscape:current-layer="layer1"
     showgrid="false"
     inkscape:window-width="1440"
     inkscape:window-height="858"
     inkscape:window-x="-11"
     inkscape:window-y="-11"
     inkscape:window-maximized="1"
     inkscape:snap-page="true"
     inkscape:measure-start="390.741,938.889"
     inkscape:measure-end="0,0"
     inkscape:snap-grids="true"
     inkscape:snap-to-guides="false"
     showborder="true">
    <inkscape:grid
       type="xygrid"
       id="grid46"
       originx="24.012479"
       originy="-448.88737" />
  </sodipodi:namedview>
  <metadata
     id="metadata5">
    <rdf:RDF>
      <cc:Work
         rdf:about="">
        <dc:format>image/svg+xml</dc:format>
        <dc:type
           rdf:resource="http://purl.org/dc/dcmitype/StillImage" />
        <dc:title />
      </cc:Work>
    </rdf:RDF>
  </metadata>
  <g
     inkscape:label="Layer 1"
     inkscape:groupmode="layer"
     id="layer1"
     transform="translate(26.044908,3.3596728)">
    <g
       inkscape:groupmode="layer"
       id="layer2"
       inkscape:label="tongue" />
    <flowRoot
       xml:space="preserve"
       id="flowRoot48"
       style="font-style:normal;font-weight:normal;font-size:40px;line-height:1.25;font-family:sans-serif;letter-spacing:0px;word-spacing:0px;fill:#000000;fill-opacity:1;stroke:none"><flowRegion
         id="flowRegion50"><rect
           id="rect52"
           width="400"
           height="120"
           x="650"
           y="352.51968" /></flowRegion><flowPara
         id="flowPara54" /></flowRoot>    <flowRoot
       xml:space="preserve"
       id="flowRoot56"
       style="font-style:normal;font-weight:normal;font-size:40px;line-height:1.25;font-family:sans-serif;letter-spacing:0px;word-spacing:0px;fill:#000000;fill-opacity:1;stroke:none"><flowRegion
         id="flowRegion58"><rect
           id="rect60"
           width="635.83862"
           height="227.60133"
           x="56.599274"
           y="29.069902" /></flowRegion><flowPara
         id="flowPara62" /></flowRoot>    <flowRoot
       xml:space="preserve"
       id="flowRoot64"
       style="font-style:normal;font-weight:normal;font-size:40px;line-height:1.25;font-family:sans-serif;letter-spacing:0px;word-spacing:0px;fill:#000000;fill-opacity:1;stroke:none"><flowRegion
         id="flowRegion66"><rect
           id="rect68"
           width="704.48029"
           height="250.48189"
           x="0"
           y="35.091103" /></flowRegion><flowPara
         id="flowPara70" /></flowRoot>    <flowRoot
       xml:space="preserve"
       id="flowRoot72"
       style="font-style:normal;font-weight:normal;font-size:40px;line-height:1.25;font-family:sans-serif;letter-spacing:0px;word-spacing:0px;fill:#000000;fill-opacity:1;stroke:none"><flowRegion
         id="flowRegion74"><rect
           id="rect76"
           width="706.88879"
           height="279.38364"
           x="0"
           y="24.252943" /></flowRegion><flowPara
         id="flowPara78" /></flowRoot>    <rect
       style="fill:none;stroke-width:0.26458332"
       id="rect83"
       width="112.16903"
       height="1.2603263"
       x="78.770386"
       y="84.635025" />
    <rect
       style="fill:none;stroke-width:0.26458332"
       id="rect85"
       width="210"
       height="87.155685"
       x="0"
       y="-8.3923342e-006" />
    <rect
       style="fill:none;stroke-width:0.26458332"
       id="rect87"
       width="190.93942"
       height="84.635025"
       x="0"
       y="-8.3923342e-006" />
    <flowRoot
       xml:space="preserve"
       id="flowRoot3792"
       style="font-style:normal;font-weight:normal;font-size:40px;line-height:1.25;font-family:sans-serif;letter-spacing:0px;word-spacing:0px;fill:#000000;fill-opacity:1;stroke:none"
       transform="matrix(0.26458333,0,0,0.26458333,0,-8.3923342e-6)"><flowRegion
         id="flowRegion3794"><rect
           id="rect3796"
           width="709.77441"
           height="306.09906"
           x="20.300753"
           y="0" /></flowRegion><flowPara
         id="flowPara3798" /></flowRoot>    <g
       id="g866">
      <rect
         y="-11.317066"
         x="-26.060463"
         height="24.866854"
         width="4.774436"
         id="rect3800"
         style="fill:none;stroke-width:0.26458332" />
      <rect
         y="-3.3596728"
         x="-20.291353"
         height="17.506266"
         width="65.051689"
         id="rect3802"
         style="fill:none;stroke-width:0.26458332" />
      <rect
         y="-2.8305087"
         x="-26.031679"
         height="70.25425"
         width="190.02684"
         id="rect4572"
         style="opacity:1;fill:#1c1c1c;fill-opacity:1;fill-rule:nonzero;stroke:#47ffff;stroke-width:0.02645833;stroke-miterlimit:4;stroke-dasharray:none;stroke-opacity:1" />
      <text
         transform="scale(0.92958176,1.0757526)"
         id="text26"
         y="61.509289"
         x="-15.250175"
         style="font-style:normal;font-weight:normal;font-size:3.67234635px;line-height:1.25;font-family:sans-serif;letter-spacing:0px;word-spacing:0px;fill:#ffffff;fill-opacity:1;stroke:none;stroke-width:0.09180865"
         xml:space="preserve"><tspan
           style="fill:#ffffff;fill-opacity:1;stroke-width:0.09180865"
           y="61.509289"
           x="-15.250175"
           id="tspan24"
           sodipodi:role="line"><tspan
   id="tspan28"
   style="font-style:normal;font-variant:normal;font-weight:normal;font-stretch:normal;font-size:42.84404373px;font-family:Constantia;-inkscape-font-specification:Constantia;fill:#ffffff;fill-opacity:1;stroke-width:0.09180865">    </tspan><tspan
   style="font-style:normal;font-variant:normal;font-weight:bold;font-stretch:normal;font-size:32.84090424px;font-family:Constantia;-inkscape-font-specification:'Constantia Bold';font-variant-ligatures:normal;font-variant-caps:normal;font-variant-numeric:normal;font-feature-settings:normal;text-align:start;writing-mode:lr-tb;text-anchor:start;fill:#ffffff;fill-opacity:1;stroke-width:0.09180865"
   id="tspan229">OCARIZA</tspan> </tspan></text>
      <rect
         y="-3.3596725"
         x="-20.291353"
         height="80.170738"
         width="213.45708"
         id="rect3804"
         style="fill:none;stroke-width:0.26458332" />
      <g
         transform="matrix(0.14118083,0,0,0.13118268,-26.03174,0.52493665)"
         id="g111-1-9"
         style="fill:#9400d3;fill-opacity:1">
        <path
           sodipodi:nodetypes="ccccccsccccccccccccccscscccccccccccccccc"
           style="fill:#00ffff;fill-opacity:1"
           inkscape:connector-curvature="0"
           d="m 509.25,146.33594 c -2.62891,-3.71875 -6.79687,-6.03906 -11.33203,-6.31641 -1.08594,-0.13281 -22.02344,-3.125 -49.62109,-36.40625 C 442.82031,97.007812 437.21875,89.695312 431.28516,81.949219 407.125,50.414062 379.74219,14.671875 342.33203,2.707031 320.47656,-4.28125 296.59766,2.371094 275.08594,21.449219 270.25781,25.730469 263.30078,28.191406 256,28.191406 c -7.30078,0 -14.25781,-2.460937 -19.08594,-6.742187 C 215.40625,2.371094 191.52344,-4.28125 169.66797,2.707031 132.26172,14.671875 104.875,50.414062 80.714844,81.949219 74.78125,89.695312 69.179688,97.007812 63.703125,103.61328 c -27.601563,33.28516 -48.542969,36.27344 -49.625,36.40625 -4.527344,0.27735 -8.699219,2.59375 -11.328125,6.3125 -2.6953125,3.81641 -3.460938,8.67188 -2.066406,13.13281 0.078125,0.25 8.375,25.90235 28.628906,58.51563 13.140625,21.15234 72.01744,57.86636 100.36119,81.89761 l -11.60211,-64.17846 c 0,0 -48.649705,-53.31681 -49.481736,-55.65665 -6.167969,-17.40234 -0.90625,-37.16406 13.085937,-49.18359 6.933594,-5.95704 26.011719,-20.75001 47.699219,-35.101568 28.57422,-18.90625 50.63281,-29.957031 67.4375,-33.785156 5.72656,-1.304687 11.64453,-1.964844 17.60156,-1.964844 14.10547,0 28.34766,3.683594 41.58594,10.707032 13.24219,-7.023438 27.48047,-10.707032 41.58984,-10.707032 5.95704,0 11.87891,0.664063 17.60157,1.964844 16.80468,3.832032 38.86328,14.882813 67.43359,33.785156 21.69141,14.351558 40.76953,29.144528 47.70313,35.101568 13.99218,12.02343 19.2539,31.78125 13.08984,49.16796 -0.83594,2.35157 -39.42977,45.98949 -54.34774,67.79418 l -4.80632,55.90154 c 28.33984,-24.03125 85.28687,-64.59025 98.4275,-85.74259 20.2539,-32.61328 28.55078,-58.26563 28.6289,-58.51563 1.39063,-4.46093 0.625,-9.3164 -2.07031,-13.1289 z M 14.117188,140.01563 C 14.324219,140 14.433594,140 14.441406,140 c -0.109375,0.004 -0.214844,0.0117 -0.324218,0.0156 z m 483.445312,-0.0117 c 0.004,0 0.11328,-0.004 0.31641,0.0156 -0.10547,-0.008 -0.21094,-0.0117 -0.31641,-0.0156 z"
           id="path62-2-7" />
        <path
           style="fill:#ffffff;fill-opacity:1"
           d="M 384.32422,194.96875 C 350.25,172.25391 330.74607,210.23071 330.74607,210.23071 L 310.61508,393.55338 C 309.70632,401.829 264.28516,441.89058 256,441.89058 v 0 l -47.60725,-43.90199 v 0 L 183.42342,209.48065 c -15.96479,-30.73239 -21.66951,-37.22674 -55.74373,-14.5119 -4.17578,2.78125 -8.00091,7.67059 -6.67969,12.48047 l 49.72289,181.01603 c 19.60931,71.38763 81.72412,117.46767 81.72412,117.46767 0,0 74.31851,-43.07644 92.39121,-114.93222 L 391.00391,207.44922 C 391,202.43359 388.49609,197.75 384.32422,194.96875 Z"
           id="path66-1-6"
           inkscape:connector-curvature="0"
           sodipodi:nodetypes="ccsccccccsscscc" />
      </g>
      <path
         style="fill:#ffffff;fill-opacity:1;stroke-width:0.07817176"
         inkscape:connector-curvature="0"
         d="M 15.453682,47.184164 A 0.26394253,0.37043365 42.718307 0 0 15.385832,46.90372 L 12.57759,44.866303 16.976713,40.404316 A 0.26546019,0.37256364 42.718307 0 0 16.734571,39.930568 L 6.7856663,45.442366 A 0.26394253,0.37043365 42.718307 0 0 6.6115548,46.011021 L 9.377856,48.017992 5.07052,52.558094 a 0.26552618,0.37265626 42.718307 0 0 0.2531376,0.464274 l 9.8917514,-5.551886 a 0.26394253,0.37043365 42.718307 0 0 0.237775,-0.286661 z"
         id="path7915-7" />
    </g>
  </g>
</svg>
