<?xml version="1.0" standalone="no"?>
<!DOCTYPE svg PUBLIC "-//W3C//DTD SVG 20010904//EN"
 "http://www.w3.org/TR/2001/REC-SVG-20010904/DTD/svg10.dtd">
<svg version="1.0" xmlns="http://www.w3.org/2000/svg"
 width="300.000000pt" height="300.000000pt" viewBox="0 0 300.000000 300.000000"
 preserveAspectRatio="xMidYMid meet">
<metadata>
Created by potrace 1.11, written by Peter Selinger 2001-2013
</metadata>
<g transform="translate(0.000000,300.000000) scale(0.100000,-0.100000)"
fill="#000000" stroke="none">
<path d="M0 1485 l0 -1485 1495 0 1495 0 0 1485 0 1485 -1495 0 -1495 0 0
-1485z m1172 1224 c60 -13 129 -45 200 -95 89 -61 146 -58 251 13 98 65 157
86 247 86 177 2 341 -114 591 -413 160 -192 237 -260 338 -296 25 -9 58 -21
73 -26 14 -5 32 -23 38 -38 10 -25 8 -38 -23 -108 -55 -130 -126 -242 -194
-309 -59 -59 -473 -376 -481 -368 -2 2 2 65 9 141 l12 137 73 86 c40 47 107
124 149 171 42 47 81 95 86 108 28 72 -10 185 -83 245 -90 74 -306 210 -431
272 -204 101 -327 117 -480 62 -61 -22 -64 -23 -102 -6 -59 27 -169 42 -238
34 -128 -14 -301 -97 -549 -261 -193 -129 -249 -206 -232 -316 6 -37 24 -60
149 -189 l141 -148 30 -158 c17 -87 29 -160 28 -162 -2 -2 -20 10 -41 26 -21
16 -96 69 -168 118 -176 120 -273 195 -315 241 -72 79 -190 305 -190 362 0 38
34 67 88 75 41 7 132 62 196 118 22 19 97 102 167 184 197 233 301 326 427
382 93 41 152 49 234 32z m-165 -972 c69 -79 67 -72 138 -567 36 -256 68 -477
71 -492 4 -20 44 -61 140 -144 l135 -116 54 33 c67 41 209 160 232 196 13 20
31 139 74 504 50 428 59 480 78 505 65 83 159 105 249 60 34 -17 54 -34 57
-49 7 -28 -253 -1000 -290 -1083 -58 -132 -197 -294 -348 -406 -134 -99 -120
-98 -213 -18 -134 116 -237 246 -312 395 -29 57 -83 226 -191 590 -173 585
-169 530 -52 592 86 45 138 46 178 0z m669 -678 c-47 -50 -86 -94 -86 -98 0
-3 25 -23 56 -45 46 -32 53 -41 42 -51 -11 -11 -282 -165 -366 -209 -18 -9
-32 -12 -32 -7 0 6 38 50 85 100 l86 90 -55 38 c-30 21 -55 43 -56 48 0 10
402 236 409 230 2 -3 -35 -46 -83 -96z"/>
</g>
</svg>
