<?xml version="1.0" encoding="UTF-8" standalone="no"?>
<svg
   xmlns:dc="http://purl.org/dc/elements/1.1/"
   xmlns:cc="http://creativecommons.org/ns#"
   xmlns:rdf="http://www.w3.org/1999/02/22-rdf-syntax-ns#"
   xmlns:svg="http://www.w3.org/2000/svg"
   xmlns="http://www.w3.org/2000/svg"
   xmlns:sodipodi="http://sodipodi.sourceforge.net/DTD/sodipodi-0.dtd"
   xmlns:inkscape="http://www.inkscape.org/namespaces/inkscape"
   id="Layer_1"
   enable-background="new 0 0 512 512"
   height="345"
   viewBox="0 0 512 345"
   width="512"
   version="1.1"
   sodipodi:docname="br.svg"
   inkscape:version="0.92.3 (2405546, 2018-03-11)">
  <metadata
     id="metadata33">
    <rdf:RDF>
      <cc:Work
         rdf:about="">
        <dc:format>image/svg+xml</dc:format>
        <dc:type
           rdf:resource="http://purl.org/dc/dcmitype/StillImage" />
      </cc:Work>
    </rdf:RDF>
  </metadata>
  <defs
     id="defs31" />
  <sodipodi:namedview
     pagecolor="#ffffff"
     bordercolor="#666666"
     borderopacity="1"
     objecttolerance="10"
     gridtolerance="10"
     guidetolerance="10"
     inkscape:pageopacity="0"
     inkscape:pageshadow="2"
     inkscape:window-width="1440"
     inkscape:window-height="858"
     id="namedview29"
     showgrid="false"
     inkscape:zoom="0.4609375"
     inkscape:cx="-165.9661"
     inkscape:cy="172.5"
     inkscape:window-x="-11"
     inkscape:window-y="-11"
     inkscape:window-maximized="1"
     inkscape:current-layer="g26" />
  <g
     id="g26"
     transform="translate(0,-83.5)">
    <path
       d="m 7.5,91 h 497 V 421 H 7.5 Z"
       id="path2"
       inkscape:connector-curvature="0"
       style="fill:#4ba543" />
    <path
       d="m 474.5,91 h 30 v 330 h -30 z"
       id="path4"
       inkscape:connector-curvature="0"
       style="fill:#43a047" />
    <path
       d="M 71,256 256,127 441,256 256,385 Z"
       id="path6"
       inkscape:connector-curvature="0"
       style="fill:#fece3f" />
    <circle
       cx="256"
       cy="256"
       r="72"
       id="circle8"
       style="fill:#2387eb" />
    <path
       d="m 256,184 c -5.145,0 -10.16,0.55 -15,1.576 32.563,6.903 57,35.805 57,70.424 0,34.619 -24.437,63.522 -57,70.424 4.84,1.026 9.855,1.576 15,1.576 39.765,0 72,-32.236 72,-72 0,-39.765 -32.235,-72 -72,-72 z"
       id="path10"
       inkscape:connector-curvature="0"
       style="fill:#207bd6" />
    <path
       d="m 185.255,242.652 139.05,36.112 C 326.69,271.607 328,263.958 328,256 c 0,-2.488 -0.126,-4.946 -0.373,-7.369 L 197.029,214.714 c -5.765,8.219 -9.852,17.694 -11.774,27.938 z"
       id="path12"
       inkscape:connector-curvature="0"
       style="fill:#efefef" />
    <path
       d="m 296.323,271.497 27.983,7.267 C 326.69,271.607 328,263.958 328,256 c 0,-2.488 -0.126,-4.946 -0.373,-7.369 l -31.305,-8.13 c 1.096,4.992 1.678,10.177 1.678,15.499 0,5.321 -0.582,10.505 -1.677,15.497 z"
       id="path14"
       inkscape:connector-curvature="0"
       style="fill:#dcdcdc" />
    <g
       id="g24">
      <path
         d="m 7.5,359.269 c 4.142,0 7.5,-3.358 7.5,-7.5 V 98.5 h 49.385 c 4.142,0 7.5,-3.358 7.5,-7.5 0,-4.142 -3.358,-7.5 -7.5,-7.5 H 7.5 C 3.358,83.5 0,86.858 0,91 v 260.769 c 0,4.142 3.358,7.5 7.5,7.5 z"
         id="path16"
         inkscape:connector-curvature="0" />
      <path
         d="M 504.5,83.5 H 96.385 c -4.142,0 -7.5,3.358 -7.5,7.5 0,4.142 3.358,7.5 7.5,7.5 H 497 v 315 H 15 v -29.731 c 0,-4.142 -3.358,-7.5 -7.5,-7.5 -4.142,0 -7.5,3.358 -7.5,7.5 V 421 c 0,4.142 3.358,7.5 7.5,7.5 h 497 c 4.142,0 7.5,-3.358 7.5,-7.5 V 91 c 0,-4.142 -3.358,-7.5 -7.5,-7.5 z"
         id="path18"
         inkscape:connector-curvature="0" />
      <path
         d="m 379.534,213.141 c 2.369,-3.398 1.536,-8.073 -1.862,-10.442 L 260.29,120.848 c -2.578,-1.798 -6.002,-1.798 -8.58,0 l -185,129 c -2.011,1.402 -3.21,3.7 -3.21,6.152 0,2.452 1.199,4.75 3.21,6.152 l 185,129 c 1.289,0.899 2.79,1.348 4.29,1.348 1.5,0 3.001,-0.449 4.29,-1.348 l 185,-129 c 2.011,-1.402 3.21,-3.7 3.21,-6.152 0,-2.452 -1.199,-4.75 -3.21,-6.152 l -41.392,-28.862 c -3.398,-2.371 -8.073,-1.535 -10.441,1.862 -2.369,3.397 -1.536,8.072 1.862,10.441 L 427.888,256 256,375.856 84.112,256 256,136.144 369.093,215.003 c 3.396,2.369 8.073,1.535 10.441,-1.862 z"
         id="path20"
         inkscape:connector-curvature="0" />
      <path
         d="m 176.5,256 c 0,43.836 35.664,79.5 79.5,79.5 43.836,0 79.5,-35.664 79.5,-79.5 0,-43.836 -35.664,-79.5 -79.5,-79.5 -43.836,0 -79.5,35.664 -79.5,79.5 z m 144,0 c 0,4.682 -0.514,9.245 -1.466,13.646 L 194.289,237.249 c 1.495,-4.91 3.565,-9.568 6.124,-13.907 l 120.05,31.178 c 0.011,0.493 0.037,0.983 0.037,1.48 z M 256,320.5 c -35.565,0 -64.5,-28.935 -64.5,-64.5 0,-1.325 0.053,-2.638 0.132,-3.943 l 122.525,31.821 C 303.74,305.524 281.586,320.5 256,320.5 Z M 318.037,238.392 210.392,210.436 C 222.073,198.743 238.206,191.5 256,191.5 c 29.46,0 54.353,19.861 62.037,46.892 z"
         id="path22"
         inkscape:connector-curvature="0" />
    </g>
  </g>
</svg>
