<?xml version="1.0" encoding="UTF-8" standalone="no"?>
<svg
   xmlns:dc="http://purl.org/dc/elements/1.1/"
   xmlns:cc="http://creativecommons.org/ns#"
   xmlns:rdf="http://www.w3.org/1999/02/22-rdf-syntax-ns#"
   xmlns:svg="http://www.w3.org/2000/svg"
   xmlns="http://www.w3.org/2000/svg"
   xmlns:sodipodi="http://sodipodi.sourceforge.net/DTD/sodipodi-0.dtd"
   xmlns:inkscape="http://www.inkscape.org/namespaces/inkscape"
   id="Layer_1"
   height="304"
   viewBox="0 0 107.5 76"
   width="430"
   data-name="Layer 1"
   version="1.1"
   sodipodi:docname="us.svg"
   inkscape:version="0.92.3 (2405546, 2018-03-11)">
  <metadata
     id="metadata75">
    <rdf:RDF>
      <cc:Work
         rdf:about="">
        <dc:format>image/svg+xml</dc:format>
        <dc:type
           rdf:resource="http://purl.org/dc/dcmitype/StillImage" />
      </cc:Work>
    </rdf:RDF>
  </metadata>
  <defs
     id="defs73" />
  <sodipodi:namedview
     pagecolor="#ffffff"
     bordercolor="#666666"
     borderopacity="1"
     objecttolerance="10"
     gridtolerance="10"
     guidetolerance="10"
     inkscape:pageopacity="0"
     inkscape:pageshadow="2"
     inkscape:window-width="1440"
     inkscape:window-height="858"
     id="namedview71"
     showgrid="false"
     inkscape:zoom="0.4609375"
     inkscape:cx="215"
     inkscape:cy="152"
     inkscape:window-x="-11"
     inkscape:window-y="-11"
     inkscape:window-maximized="1"
     inkscape:current-layer="Layer_1" />
  <path
     d="m 1.75,1.751 h 104 v 72.497 h -104 z"
     id="path2"
     inkscape:connector-curvature="0"
     style="fill:#d60a2e" />
  <path
     d="m 1.75,1.751 h 104 v 10.357 h -104 z"
     id="path4"
     inkscape:connector-curvature="0"
     style="fill:#f0f0f0" />
  <path
     d="m 1.75,22.465 h 104 v 10.357 h -104 z"
     id="path6"
     inkscape:connector-curvature="0"
     style="fill:#f0f0f0" />
  <path
     d="m 1.75,43.178 h 104 v 10.357 h -104 z"
     id="path8"
     inkscape:connector-curvature="0"
     style="fill:#f0f0f0" />
  <path
     d="m 1.75,63.892 h 104 v 10.357 h -104 z"
     id="path10"
     inkscape:connector-curvature="0"
     style="fill:#f0f0f0" />
  <path
     d="m 1.75,1.751 h 48.333 v 31.07 H 1.75 Z"
     id="path12"
     inkscape:connector-curvature="0"
     style="fill:#0b55b1" />
  <g
     id="g62"
     style="fill:#f0f0f0"
     transform="translate(-10.25,-26)">
    <path
       d="m 18.591,31.379 0.783,1.587 1.751,0.255 -1.267,1.235 0.299,1.744 -1.566,-0.824 -1.566,0.824 0.299,-1.744 -1.267,-1.235 1.751,-0.255 z"
       id="path14"
       inkscape:connector-curvature="0" />
    <path
       d="m 25.621,31.379 0.784,1.587 1.751,0.255 -1.268,1.235 0.3,1.744 -1.567,-0.824 -1.566,0.824 0.299,-1.744 -1.267,-1.235 1.751,-0.255 z"
       id="path16"
       inkscape:connector-curvature="0" />
    <path
       d="m 32.652,31.379 0.783,1.587 1.751,0.255 -1.267,1.235 0.299,1.744 -1.566,-0.824 -1.567,0.824 0.299,-1.744 -1.267,-1.235 1.751,-0.255 z"
       id="path18"
       inkscape:connector-curvature="0" />
    <path
       d="m 39.682,31.379 0.783,1.587 1.751,0.255 -1.267,1.235 0.299,1.744 -1.566,-0.824 -1.566,0.824 0.299,-1.744 -1.267,-1.235 1.751,-0.255 z"
       id="path20"
       inkscape:connector-curvature="0" />
    <path
       d="m 46.712,31.379 0.783,1.587 1.751,0.255 -1.267,1.235 0.299,1.744 -1.566,-0.824 -1.566,0.824 0.299,-1.744 -1.267,-1.235 1.751,-0.255 z"
       id="path22"
       inkscape:connector-curvature="0" />
    <path
       d="m 53.742,31.379 0.783,1.587 1.751,0.255 -1.267,1.235 0.299,1.744 -1.566,-0.824 -1.566,0.824 0.299,-1.744 -1.267,-1.235 1.751,-0.255 z"
       id="path24"
       inkscape:connector-curvature="0" />
    <path
       d="m 18.591,37.711 0.783,1.586 1.751,0.255 -1.267,1.235 0.299,1.744 -1.566,-0.823 -1.566,0.823 0.299,-1.744 -1.267,-1.235 1.751,-0.255 z"
       id="path26"
       inkscape:connector-curvature="0" />
    <path
       d="m 25.621,37.711 0.784,1.586 1.751,0.255 -1.268,1.235 0.3,1.744 -1.567,-0.823 -1.566,0.823 0.299,-1.744 -1.267,-1.235 1.751,-0.255 z"
       id="path28"
       inkscape:connector-curvature="0" />
    <path
       d="m 32.652,37.711 0.783,1.586 1.751,0.255 -1.267,1.235 0.299,1.744 -1.566,-0.823 -1.567,0.823 0.299,-1.744 -1.267,-1.235 1.751,-0.255 z"
       id="path30"
       inkscape:connector-curvature="0" />
    <path
       d="m 39.682,37.711 0.783,1.586 1.751,0.255 -1.267,1.235 0.299,1.744 -1.566,-0.823 -1.566,0.823 0.299,-1.744 -1.267,-1.235 1.751,-0.255 z"
       id="path32"
       inkscape:connector-curvature="0" />
    <path
       d="m 46.712,37.711 0.783,1.586 1.751,0.255 -1.267,1.235 0.299,1.744 -1.566,-0.823 -1.566,0.823 0.299,-1.744 -1.267,-1.235 1.751,-0.255 z"
       id="path34"
       inkscape:connector-curvature="0" />
    <path
       d="m 53.742,37.711 0.783,1.586 1.751,0.255 -1.267,1.235 0.299,1.744 -1.566,-0.823 -1.566,0.823 0.299,-1.744 -1.267,-1.235 1.751,-0.255 z"
       id="path36"
       inkscape:connector-curvature="0" />
    <path
       d="m 18.591,44.042 0.783,1.587 1.751,0.254 -1.267,1.235 0.299,1.744 -1.566,-0.823 -1.566,0.823 0.299,-1.744 -1.267,-1.235 1.751,-0.254 z"
       id="path38"
       inkscape:connector-curvature="0" />
    <path
       d="m 25.621,44.042 0.784,1.587 1.751,0.254 -1.268,1.235 0.3,1.744 -1.567,-0.823 -1.566,0.823 0.299,-1.744 -1.267,-1.235 1.751,-0.254 z"
       id="path40"
       inkscape:connector-curvature="0" />
    <path
       d="m 32.652,44.042 0.783,1.587 1.751,0.254 -1.267,1.235 0.299,1.744 -1.566,-0.823 -1.567,0.823 0.299,-1.744 -1.267,-1.235 1.751,-0.254 z"
       id="path42"
       inkscape:connector-curvature="0" />
    <path
       d="m 39.682,44.042 0.783,1.587 1.751,0.254 -1.267,1.235 0.299,1.744 -1.566,-0.823 -1.566,0.823 0.299,-1.744 -1.267,-1.235 1.751,-0.254 z"
       id="path44"
       inkscape:connector-curvature="0" />
    <path
       d="m 46.712,44.042 0.783,1.587 1.751,0.254 -1.267,1.235 0.299,1.744 -1.566,-0.823 -1.566,0.823 0.299,-1.744 -1.267,-1.235 1.751,-0.254 z"
       id="path46"
       inkscape:connector-curvature="0" />
    <path
       d="m 53.742,44.042 0.783,1.587 1.751,0.254 -1.267,1.235 0.299,1.744 -1.566,-0.823 -1.566,0.823 0.299,-1.744 -1.267,-1.235 1.751,-0.254 z"
       id="path48"
       inkscape:connector-curvature="0" />
    <path
       d="m 18.591,50.373 0.783,1.587 1.751,0.254 -1.267,1.235 0.299,1.744 -1.566,-0.823 -1.566,0.823 0.299,-1.744 -1.267,-1.235 1.751,-0.254 z"
       id="path50"
       inkscape:connector-curvature="0" />
    <path
       d="m 25.621,50.373 0.784,1.587 1.751,0.254 -1.268,1.235 0.3,1.744 -1.567,-0.823 -1.566,0.823 0.299,-1.744 -1.267,-1.235 1.751,-0.254 z"
       id="path52"
       inkscape:connector-curvature="0" />
    <path
       d="m 32.652,50.373 0.783,1.587 1.751,0.254 -1.267,1.235 0.299,1.744 -1.566,-0.823 -1.567,0.823 0.299,-1.744 -1.267,-1.235 1.751,-0.254 z"
       id="path54"
       inkscape:connector-curvature="0" />
    <path
       d="m 39.682,50.373 0.783,1.587 1.751,0.254 -1.267,1.235 0.299,1.744 -1.566,-0.823 -1.566,0.823 0.299,-1.744 -1.267,-1.235 1.751,-0.254 z"
       id="path56"
       inkscape:connector-curvature="0" />
    <path
       d="m 46.712,50.373 0.783,1.587 1.751,0.254 -1.267,1.235 0.299,1.744 -1.566,-0.823 -1.566,0.823 0.299,-1.744 -1.267,-1.235 1.751,-0.254 z"
       id="path58"
       inkscape:connector-curvature="0" />
    <path
       d="m 53.742,50.373 0.783,1.587 1.751,0.254 -1.267,1.235 0.299,1.744 -1.566,-0.823 -1.566,0.823 0.299,-1.744 -1.267,-1.235 1.751,-0.254 z"
       id="path60"
       inkscape:connector-curvature="0" />
  </g>
  <path
     d="M 105.75,0 H 1.75 A 1.751,1.751 0 0 0 0,1.75 v 72.5 A 1.751,1.751 0 0 0 1.75,76 h 68.417 a 1.75,1.75 0 0 0 0,-3.5 H 3.5 V 65.642 H 104 V 72.5 H 85.417 a 1.75,1.75 0 0 0 0,3.5 h 20.333 a 1.75,1.75 0 0 0 1.75,-1.75 V 1.75 A 1.75,1.75 0 0 0 105.75,0 Z M 104,10.357 H 56.917 a 1.75,1.75 0 0 0 0,3.5 H 104 v 6.857 H 51.833 V 3.5 H 104 Z M 48.333,3.5 V 31.072 H 3.5 V 3.5 Z M 3.5,62.142 v -6.857 h 93.917 a 1.75,1.75 0 0 0 0,-3.5 H 3.5 v -6.857 h 6.25 a 1.75,1.75 0 0 0 0,-3.5 H 3.5 v -6.856 h 93.917 a 1.75,1.75 0 0 0 0,-3.5 H 51.833 V 24.215 H 104 V 41.428 H 24.936 a 1.75,1.75 0 0 0 0,3.5 H 104 v 17.214 z"
     id="path64"
     inkscape:connector-curvature="0" />
  <path
     d="m 78.583,72.5 h -1.166 a 1.75,1.75 0 0 0 0,3.5 h 1.166 a 1.75,1.75 0 0 0 0,-3.5 z"
     id="path66"
     inkscape:connector-curvature="0" />
  <path
     d="m 17.583,41.428 h -1.212 a 1.75,1.75 0 1 0 0,3.5 h 1.212 a 1.75,1.75 0 0 0 0,-3.5 z"
     id="path68"
     inkscape:connector-curvature="0" />
</svg>
