<?xml version="1.0" standalone="no"?>
<!DOCTYPE svg PUBLIC "-//W3C//DTD SVG 20010904//EN"
 "http://www.w3.org/TR/2001/REC-SVG-20010904/DTD/svg10.dtd">
<svg version="1.0" xmlns="http://www.w3.org/2000/svg"
 width="260.000000pt" height="260.000000pt" viewBox="0 0 260.000000 260.000000"
 preserveAspectRatio="xMidYMid meet">
<metadata>
Created by potrace 1.11, written by Peter Selinger 2001-2013
</metadata>
<g transform="translate(0.000000,260.000000) scale(0.100000,-0.100000)"
fill="#000000" stroke="none">
<path d="M7 2463 c-4 -3 -7 -559 -7 -1235 l0 -1228 1300 0 1300 0 0 1235 0
1235 -1293 0 c-712 0 -1297 -3 -1300 -7z m1055 -107 c21 -9 66 -34 100 -57 57
-37 68 -40 115 -37 36 3 62 13 87 32 102 78 213 101 315 66 128 -43 215 -115
392 -326 131 -155 213 -226 293 -249 56 -17 86 -40 86 -66 0 -54 -119 -264
-187 -331 -46 -45 -393 -311 -399 -306 -1 2 2 56 8 120 l11 118 116 131 c148
167 145 163 145 218 -1 74 -32 121 -124 188 -114 82 -291 187 -379 225 -103
43 -217 50 -309 19 l-63 -22 -66 21 c-118 36 -256 18 -379 -51 -122 -67 -157
-88 -238 -142 -160 -107 -196 -151 -196 -241 0 -52 10 -66 151 -211 l88 -90
24 -130 c14 -71 24 -131 23 -132 -4 -4 -312 211 -378 263 -71 58 -109 112
-179 258 -40 83 -42 90 -28 115 8 14 28 30 44 34 54 16 132 58 175 94 22 19
87 90 143 157 178 211 274 293 401 338 59 21 148 19 208 -6z m-217 -768 c14
-6 38 -32 54 -57 28 -44 33 -67 87 -451 55 -397 57 -405 84 -430 15 -14 66
-58 114 -99 l86 -73 42 25 c55 32 185 142 198 167 6 11 31 196 56 412 42 356
49 396 70 424 28 38 80 64 128 64 45 0 112 -33 121 -59 6 -21 -204 -813 -236
-888 -48 -113 -165 -252 -289 -343 -103 -75 -105 -76 -148 -44 -116 87 -267
283 -315 410 -43 112 -258 851 -252 866 5 13 92 70 125 81 25 9 48 8 75 -5z
m574 -584 l-74 -75 27 -20 c52 -39 73 -57 68 -62 -17 -16 -334 -186 -338 -182
-3 3 26 38 66 78 40 40 72 75 72 78 0 3 -21 20 -46 39 -32 23 -42 36 -35 43
17 17 325 186 330 181 3 -2 -29 -38 -70 -80z"/>
</g>
</svg>
